<svg width="164" height="47" viewBox="0 0 164 47" fill="none" xmlns="http://www.w3.org/2000/svg">
<rect width="164" height="47" rx="4" fill="#030504"/>
<path d="M15.209 21.334L16.3027 20.2471L17.3965 21.334L16.3027 22.4277L15.209 21.334ZM17.1982 23.5898C17.4079 24.0684 17.5628 24.5651 17.6631 25.0801C17.7679 25.5905 17.8203 26.0941 17.8203 26.5908C17.8203 27.2972 17.6813 27.9648 17.4033 28.5938C17.1253 29.2227 16.6947 29.7673 16.1113 30.2275C15.528 30.6878 14.776 31.0205 13.8555 31.2256L13.2334 29.9609C14.3408 29.6921 15.1475 29.2728 15.6533 28.7031C16.1592 28.138 16.4121 27.4704 16.4121 26.7002C16.4121 25.8571 16.2184 24.9821 15.8311 24.0752L17.1982 23.5898ZM22.0928 27.5H21.9219C21.056 27.5 20.3906 27.2699 19.9258 26.8096C19.4609 26.3493 19.2285 25.611 19.2285 24.5947V18.0938H20.6572V24.6016C20.6572 25.1484 20.762 25.5176 20.9717 25.709C21.1859 25.9004 21.5026 25.9961 21.9219 25.9961H22.0928V27.5ZM29.8447 25.9961C30.0999 25.9961 30.2982 25.8913 30.4395 25.6816C30.5853 25.4674 30.6582 25.112 30.6582 24.6152C30.6582 24.3737 30.6263 24.0843 30.5625 23.7471C30.5033 23.4053 30.4235 23.0612 30.3232 22.7148L31.7041 22.3662C31.818 22.7262 31.9137 23.0863 31.9912 23.4463C32.0687 23.8063 32.1074 24.1618 32.1074 24.5127C32.1074 25.0413 32.0345 25.5335 31.8887 25.9893C31.7474 26.4404 31.5104 26.805 31.1777 27.083C30.8496 27.3564 30.4076 27.4954 29.8516 27.5C29.0859 27.5 28.5277 27.2038 28.1768 26.6113C27.6937 27.2038 27.0716 27.5 26.3105 27.5C25.4401 27.5 24.834 27.2061 24.4922 26.6182C24.0684 27.2061 23.3369 27.5 22.2979 27.5H21.8262V25.9961H22.3115C22.8447 25.9961 23.2298 25.9072 23.4668 25.7295C23.7083 25.5472 23.8291 25.2054 23.8291 24.7041C23.8291 24.5947 23.82 24.4124 23.8018 24.1572C23.7881 23.902 23.7699 23.6377 23.7471 23.3643L25.1484 23.2002L25.2715 24.8887C25.2943 25.2259 25.3923 25.4948 25.5654 25.6953C25.7386 25.8958 25.9915 25.9961 26.3242 25.9961C26.7344 25.9961 27.0238 25.8913 27.1924 25.6816C27.3656 25.4674 27.4521 25.1416 27.4521 24.7041C27.4521 24.6038 27.443 24.4261 27.4248 24.1709C27.4111 23.9111 27.3952 23.6423 27.377 23.3643L28.7715 23.2002L28.8945 24.8887C28.9173 25.2214 29.0039 25.4902 29.1543 25.6953C29.3047 25.8958 29.5348 25.9961 29.8447 25.9961ZM33.1738 24.5469C33.1738 23.1569 34.3245 22.0951 36.626 21.3613L36.5713 21.04L37.9316 20.7598L38.5127 24.9297C38.6084 25.6406 38.9912 25.9961 39.6611 25.9961H39.873V27.5H39.6338C39.014 27.5 38.515 27.3678 38.1367 27.1035C37.763 26.8392 37.5055 26.4587 37.3643 25.9619C36.8265 26.3857 36.234 26.5977 35.5869 26.5977C35.1585 26.5977 34.7598 26.527 34.3906 26.3857C34.026 26.2399 33.7321 26.0166 33.5088 25.7158C33.2855 25.4105 33.1738 25.0208 33.1738 24.5469ZM36.8447 22.749C36.0882 23.0361 35.5299 23.321 35.1699 23.6035C34.8145 23.8861 34.6367 24.1732 34.6367 24.4648C34.6367 24.9388 34.9398 25.1758 35.5459 25.1758C35.7874 25.1758 36.0199 25.1302 36.2432 25.0391C36.471 24.9434 36.6579 24.8135 36.8037 24.6494C36.9495 24.4854 37.0225 24.2917 37.0225 24.0684C37.0225 23.9408 37.0133 23.8177 36.9951 23.6992L36.8447 22.749ZM45.1162 27.5H44.9521C44.4964 27.5 44.1182 27.4248 43.8174 27.2744C43.5212 27.124 43.2796 26.9007 43.0928 26.6045C42.833 26.9053 42.4912 27.1309 42.0674 27.2812C41.6481 27.4271 41.165 27.5 40.6182 27.5H39.5996V25.9961H40.6318C41.2972 25.9961 41.7484 25.9095 41.9854 25.7363C42.2269 25.5632 42.3499 25.2236 42.3545 24.7178C42.3545 24.4762 42.3477 24.2256 42.334 23.9658C42.3203 23.7015 42.3066 23.4508 42.293 23.2139L43.6875 23.0566L43.8037 24.8887C43.8265 25.2715 43.929 25.5518 44.1113 25.7295C44.2982 25.9072 44.583 25.9961 44.9658 25.9961H45.1162V27.5ZM41.4932 29.5713L42.5254 28.5391L43.5645 29.5713L42.5254 30.6172L41.4932 29.5713ZM39.21 29.5713L40.2422 28.5391L41.2812 29.5713L40.2422 30.6172L39.21 29.5713ZM49.8193 27.5H49.6553C48.7985 27.5 48.1764 27.2015 47.7891 26.6045C47.543 26.9007 47.2376 27.124 46.873 27.2744C46.513 27.4248 46.1143 27.5 45.6768 27.5H44.8496V25.9961H45.6768C46.1917 25.9961 46.5495 25.8913 46.75 25.6816C46.9551 25.472 47.0576 25.1279 47.0576 24.6494C47.0576 24.4215 47.0508 24.1846 47.0371 23.9385C47.0234 23.6924 47.0098 23.4531 46.9961 23.2207L48.3906 23.0566L48.5068 24.8818C48.5296 25.2646 48.6322 25.5472 48.8145 25.7295C49.0013 25.9072 49.2861 25.9961 49.6689 25.9961H49.8193V27.5ZM45.2939 29.5713L46.3877 28.4844L47.4814 29.5713L46.3877 30.665L45.2939 29.5713ZM54.5225 19.2012L55.5 18.2236L56.4844 19.2012L55.5 20.1855L54.5225 19.2012ZM55.6982 20.9922L56.6758 20.0146L57.6602 20.9922L56.6758 21.9766L55.6982 20.9922ZM53.374 20.9922L54.3516 20.0146L55.3359 20.9922L54.3516 21.9766L53.374 20.9922ZM57.5713 25.9961C57.8265 25.9961 58.0247 25.8913 58.166 25.6816C58.3118 25.4674 58.3848 25.112 58.3848 24.6152C58.3848 24.3737 58.3529 24.0843 58.2891 23.7471C58.2298 23.4053 58.1501 23.0612 58.0498 22.7148L59.4307 22.3662C59.5446 22.7262 59.6403 23.0863 59.7178 23.4463C59.7952 23.8063 59.834 24.1618 59.834 24.5127C59.834 25.0413 59.7611 25.5335 59.6152 25.9893C59.474 26.4404 59.237 26.805 58.9043 27.083C58.5762 27.3564 58.1341 27.4954 57.5781 27.5C56.8125 27.5 56.2542 27.2038 55.9033 26.6113C55.4202 27.2038 54.7982 27.5 54.0371 27.5C53.1667 27.5 52.5605 27.2061 52.2188 26.6182C51.7949 27.2061 51.0635 27.5 50.0244 27.5H49.5527V25.9961H50.0381C50.5713 25.9961 50.9564 25.9072 51.1934 25.7295C51.4349 25.5472 51.5557 25.2054 51.5557 24.7041C51.5557 24.5947 51.5465 24.4124 51.5283 24.1572C51.5146 23.902 51.4964 23.6377 51.4736 23.3643L52.875 23.2002L52.998 24.8887C53.0208 25.2259 53.1188 25.4948 53.292 25.6953C53.4652 25.8958 53.7181 25.9961 54.0508 25.9961C54.4609 25.9961 54.7503 25.8913 54.9189 25.6816C55.0921 25.4674 55.1787 25.1416 55.1787 24.7041C55.1787 24.6038 55.1696 24.4261 55.1514 24.1709C55.1377 23.9111 55.1217 23.6423 55.1035 23.3643L56.498 23.2002L56.6211 24.8887C56.6439 25.2214 56.7305 25.4902 56.8809 25.6953C57.0312 25.8958 57.2614 25.9961 57.5713 25.9961ZM67.7568 23.5898C67.9665 24.0684 68.1214 24.5651 68.2217 25.0801C68.3265 25.5905 68.3789 26.0941 68.3789 26.5908C68.3789 27.2972 68.2399 27.9648 67.9619 28.5938C67.6839 29.2227 67.2533 29.7673 66.6699 30.2275C66.0866 30.6878 65.3346 31.0205 64.4141 31.2256L63.792 29.9609C64.8994 29.6921 65.7061 29.2728 66.2119 28.7031C66.7178 28.138 66.9707 27.4704 66.9707 26.7002C66.9707 25.8571 66.777 24.9821 66.3896 24.0752L67.7568 23.5898ZM69.7871 18.0938H71.2158V27.4932H69.7871V18.0938ZM72.8496 21.334L73.9434 20.2471L75.0371 21.334L73.9434 22.4277L72.8496 21.334ZM74.8389 23.5898C75.0485 24.0684 75.2035 24.5651 75.3037 25.0801C75.4085 25.5905 75.4609 26.0941 75.4609 26.5908C75.4609 27.2972 75.3219 27.9648 75.0439 28.5938C74.766 29.2227 74.3353 29.7673 73.752 30.2275C73.1686 30.6878 72.4167 31.0205 71.4961 31.2256L70.874 29.9609C71.9814 29.6921 72.7881 29.2728 73.2939 28.7031C73.7998 28.138 74.0527 27.4704 74.0527 26.7002C74.0527 25.8571 73.859 24.9821 73.4717 24.0752L74.8389 23.5898ZM79.7334 27.5H79.5625C78.6966 27.5 78.0312 27.2699 77.5664 26.8096C77.1016 26.3493 76.8691 25.611 76.8691 24.5947V18.0938H78.2979V24.6016C78.2979 25.1484 78.4027 25.5176 78.6123 25.709C78.8265 25.9004 79.1432 25.9961 79.5625 25.9961H79.7334V27.5ZM83.1172 24.5195C83.1172 25.4629 82.8757 26.1966 82.3926 26.7207C81.9141 27.2402 81.21 27.5 80.2803 27.5H79.4668V25.9961H80.2803C80.7816 25.9961 81.1393 25.889 81.3535 25.6748C81.5677 25.4606 81.6748 25.0824 81.6748 24.54C81.6748 24.262 81.6475 23.9339 81.5928 23.5557C81.5381 23.1729 81.472 22.8174 81.3945 22.4893L82.7754 22.1543C82.8848 22.528 82.9691 22.9268 83.0283 23.3506C83.0876 23.7699 83.1172 24.1595 83.1172 24.5195ZM79.9111 29.5713L81.0049 28.4844L82.0986 29.5713L81.0049 30.665L79.9111 29.5713ZM92.8262 22.4668L93.6465 21.6465L94.4727 22.4668L93.6465 23.2988L92.8262 22.4668ZM90.8809 22.4668L91.7012 21.6465L92.5273 22.4668L91.7012 23.2988L90.8809 22.4668ZM93.1133 27.5H92.2637C90.8613 27.5 89.7852 27.2637 89.0352 26.791C88.2891 26.3145 87.916 25.6055 87.916 24.6641C87.916 24.4023 87.9434 24.1465 87.998 23.8965C88.0566 23.6465 88.1348 23.4062 88.2324 23.1758L89.1289 23.5098C89.0664 23.6738 89.0195 23.8496 88.9883 24.0371C88.957 24.2246 88.9414 24.4043 88.9414 24.5762C88.9453 25.2207 89.2207 25.6934 89.7676 25.9941C90.3145 26.2949 91.127 26.4453 92.2051 26.4453H93.084C93.8379 26.4453 94.4609 26.3848 94.9531 26.2637C95.4453 26.1387 95.7988 25.9473 96.0137 25.6895C96.0801 25.6113 96.1309 25.5137 96.166 25.3965C96.2012 25.2793 96.2188 25.1367 96.2188 24.9688C96.2188 24.8125 96.2129 24.6582 96.2012 24.5059C96.1934 24.3496 96.1855 24.1992 96.1777 24.0547L97.1211 23.9375L97.2148 25.3906C97.2383 25.7422 97.3379 26.0059 97.5137 26.1816C97.6895 26.3574 97.957 26.4453 98.3164 26.4453H98.4629V27.5H98.3164C97.8984 27.5 97.5469 27.4121 97.2617 27.2363C96.9805 27.0605 96.752 26.8008 96.5762 26.457C96.2441 26.8086 95.7812 27.0703 95.1875 27.2422C94.5977 27.4141 93.9062 27.5 93.1133 27.5ZM100.039 19.6836L100.895 18.834L101.75 19.6836L100.895 20.5391L100.039 19.6836ZM102.254 25.209C101.883 25.3223 101.49 25.3789 101.076 25.3789C99.7988 25.3789 99.1602 24.8535 99.1602 23.8027C99.1602 23.4277 99.2266 23.0547 99.3594 22.6836C99.4961 22.3125 99.7051 22.0059 99.9863 21.7637C100.271 21.5176 100.635 21.3945 101.076 21.3945C101.443 21.3945 101.758 21.4883 102.02 21.6758C102.285 21.8633 102.5 22.1191 102.664 22.4434C102.832 22.7637 102.955 23.127 103.033 23.5332C103.111 23.9395 103.15 24.3594 103.15 24.793C103.15 25.5391 103.041 26.1074 102.822 26.498C102.604 26.8848 102.256 27.1484 101.779 27.2891C101.303 27.4297 100.676 27.5 99.8984 27.5H98.2285V26.4453H99.9629C100.697 26.4453 101.262 26.3672 101.656 26.2109C102.051 26.0508 102.25 25.7168 102.254 25.209ZM102.16 24.2246C102.129 23.959 102.072 23.6875 101.99 23.4102C101.912 23.1328 101.797 22.9004 101.645 22.7129C101.492 22.5215 101.289 22.4258 101.035 22.4258C100.812 22.4258 100.633 22.502 100.496 22.6543C100.359 22.8066 100.26 22.9863 100.197 23.1934C100.135 23.4004 100.104 23.5898 100.104 23.7617C100.104 24.0117 100.191 24.1777 100.367 24.2598C100.547 24.3418 100.809 24.3828 101.152 24.3828C101.32 24.3828 101.488 24.3691 101.656 24.3418C101.824 24.3145 101.992 24.2754 102.16 24.2246ZM106.93 27.5H106.783C106.068 27.5 105.523 27.3164 105.148 26.9492C104.777 26.582 104.592 25.9746 104.592 25.127V19.4961H105.582V25.1328C105.582 25.6289 105.686 25.9727 105.893 26.1641C106.1 26.3516 106.396 26.4453 106.783 26.4453H106.93V27.5ZM109.924 23.1758C110.014 23.4805 110.078 23.8008 110.117 24.1367C110.16 24.4688 110.182 24.7773 110.182 25.0625C110.182 25.9258 109.969 26.5488 109.543 26.9316C109.121 27.3105 108.465 27.5 107.574 27.5H106.701V26.4453H107.574C107.961 26.4453 108.271 26.4102 108.506 26.3398C108.74 26.2695 108.91 26.1367 109.016 25.9414C109.125 25.7461 109.18 25.459 109.18 25.0801C109.18 24.8496 109.16 24.584 109.121 24.2832C109.082 23.9785 109.029 23.6875 108.963 23.4102L109.924 23.1758ZM108.383 29.2754L109.203 28.4551L110.029 29.2754L109.203 30.1074L108.383 29.2754ZM106.438 29.2754L107.258 28.4551L108.084 29.2754L107.258 30.1074L106.438 29.2754ZM114.037 24.4121C114.209 24.8066 114.332 25.2109 114.406 25.625C114.48 26.0352 114.518 26.4395 114.518 26.8379C114.518 27.4082 114.406 27.9531 114.184 28.4727C113.965 28.9961 113.619 29.4512 113.146 29.8379C112.674 30.2246 112.059 30.5039 111.301 30.6758L110.873 29.8086C111.822 29.5781 112.504 29.2031 112.918 28.6836C113.336 28.1641 113.545 27.5801 113.545 26.9316C113.545 26.5918 113.508 26.2383 113.434 25.8711C113.363 25.5039 113.248 25.1309 113.088 24.752L114.037 24.4121ZM115.666 26.2871C116.166 26.3887 116.594 26.4395 116.949 26.4395C118.402 26.4395 119.129 26.082 119.129 25.3672C119.129 24.625 118.32 23.7441 116.703 22.7246L117.277 21.8574C119.199 23.0059 120.16 24.1699 120.16 25.3496C120.16 26.7754 119.115 27.4883 117.025 27.4883C116.779 27.4883 116.543 27.4766 116.316 27.4531C116.09 27.4258 115.873 27.3906 115.666 27.3477V26.2871Z" fill="white"/>
<path d="M145.389 33H130.611C130.051 32.9993 129.515 32.7765 129.119 32.3805C128.723 31.9846 128.501 31.4478 128.5 30.888V24.555C128.508 24.2807 128.623 24.0205 128.82 23.8294C129.017 23.6384 129.281 23.5315 129.556 23.5315C129.83 23.5315 130.094 23.6384 130.291 23.8294C130.488 24.0205 130.603 24.2807 130.611 24.555V29.832C130.612 30.1119 130.723 30.38 130.921 30.5778C131.119 30.7756 131.387 30.8868 131.667 30.887H144.334C144.614 30.8865 144.882 30.7752 145.079 30.5775C145.277 30.3797 145.388 30.1117 145.389 29.832V24.555C145.397 24.2807 145.512 24.0205 145.709 23.8294C145.906 23.6384 146.17 23.5315 146.444 23.5315C146.719 23.5315 146.983 23.6384 147.18 23.8294C147.377 24.0205 147.492 24.2807 147.5 24.555V30.888C147.499 31.4478 147.277 31.9846 146.881 32.3805C146.485 32.7765 145.949 32.9993 145.389 33ZM138 27.809C137.861 27.81 137.723 27.7831 137.594 27.7301C137.465 27.677 137.348 27.5988 137.25 27.5L133.46 23.71C133.36 23.6127 133.28 23.4965 133.225 23.3681C133.171 23.2397 133.142 23.1017 133.141 22.9621C133.14 22.8225 133.167 22.6841 133.22 22.5549C133.273 22.4258 133.351 22.3085 133.45 22.2098C133.549 22.1112 133.666 22.0331 133.795 21.9803C133.924 21.9274 134.063 21.9008 134.202 21.9019C134.342 21.9031 134.48 21.932 134.608 21.9869C134.737 22.0419 134.853 22.1218 134.95 22.222L136.945 24.206V15.055C136.941 14.9137 136.965 14.7729 137.016 14.6411C137.067 14.5092 137.144 14.3889 137.242 14.2874C137.341 14.1859 137.459 14.1052 137.589 14.0501C137.719 13.995 137.859 13.9666 138 13.9666C138.142 13.9666 138.282 13.995 138.412 14.0501C138.542 14.1052 138.66 14.1859 138.759 14.2874C138.857 14.3889 138.934 14.5092 138.985 14.6411C139.036 14.7729 139.06 14.9137 139.056 15.055V24.206L141.04 22.222C141.137 22.1219 141.253 22.042 141.382 21.9871C141.51 21.9323 141.648 21.9035 141.788 21.9024C141.927 21.9014 142.066 21.9281 142.195 21.9811C142.324 22.034 142.442 22.1121 142.54 22.2108C142.639 22.3095 142.717 22.4269 142.77 22.5561C142.823 22.6853 142.85 22.8237 142.849 22.9633C142.848 23.1029 142.819 23.2409 142.764 23.3693C142.709 23.4976 142.629 23.6138 142.529 23.711L138.739 27.501C138.642 27.5984 138.527 27.6757 138.4 27.7285C138.273 27.7814 138.137 27.8087 138 27.809Z" fill="#15D1C6"/>
</svg>
