<svg xmlns="http://www.w3.org/2000/svg" width="22.445" height="22.445" viewBox="0 0 22.445 22.445"><path d="M15.925,0H6.52A6.527,6.527,0,0,0,0,6.52v9.405a6.527,6.527,0,0,0,6.52,6.52h9.405a6.527,6.527,0,0,0,6.52-6.52V6.52A6.527,6.527,0,0,0,15.925,0Zm4.766,15.925a4.772,4.772,0,0,1-4.766,4.766H6.52a4.772,4.772,0,0,1-4.766-4.766V6.52A4.772,4.772,0,0,1,6.52,1.754h9.405A4.772,4.772,0,0,1,20.692,6.52Z" fill="#fff"/><g transform="translate(5.331 5.331)"><path d="M123.891,118a5.891,5.891,0,1,0,5.891,5.891A5.9,5.9,0,0,0,123.891,118Zm0,10.075a4.184,4.184,0,1,1,4.184-4.184A4.188,4.188,0,0,1,123.891,128.075Z" transform="translate(-118 -118)" fill="#fff"/></g><g transform="translate(15.907 4.245)"><g transform="translate(0 0)"><ellipse cx="1.403" cy="0.701" rx="1.403" ry="0.701" fill="#fff"/></g></g></svg>