<svg xmlns="http://www.w3.org/2000/svg" width="16" height="16" viewBox="0 0 16 16"><path d="M18.163,17.822h0V12.33c0-2.687-.578-4.756-3.719-4.756a3.26,3.26,0,0,0-2.937,1.614h-.044V7.825H8.489v10h3.1v-4.95c0-1.3.247-2.564,1.861-2.564,1.59,0,1.614,1.487,1.614,2.647v4.867Z" transform="translate(-2.166 -1.822)" fill="#fff"/><path d="M.4,7.977H3.5v10H.4Z" transform="translate(-0.149 -1.974)" fill="#fff"/><path d="M1.8,0A1.807,1.807,0,1,0,3.6,1.8,1.8,1.8,0,0,0,1.8,0Z" transform="translate(0 0)" fill="#fff"/></svg>